<?xml version="1.0" encoding="UTF-8" standalone="no"?>
<svg width="26px" height="19px" viewBox="0 0 26 19" version="1.1" xmlns="http://www.w3.org/2000/svg" xmlns:xlink="http://www.w3.org/1999/xlink" xmlns:sketch="http://www.bohemiancoding.com/sketch/ns">
    <!-- Generator: Sketch 3.3.2 (12043) - http://www.bohemiancoding.com/sketch -->
    <title>Imported Layers Copy 8</title>
    <desc>Created with Sketch.</desc>
    <defs></defs>
    <g id="Spec" stroke="none" stroke-width="1" fill="none" fill-rule="evenodd" sketch:type="MSPage">
        <g id="Spec-3" sketch:type="MSArtboardGroup" transform="translate(-441.000000, -767.000000)" fill="#007FAA">
            <g id="Group" sketch:type="MSLayerGroup" transform="translate(130.000000, 118.000000)">
                <g id="Reading-2" transform="translate(90.000000, 513.000000)" sketch:type="MSShapeGroup">
                    <g id="Imported-Layers-Copy-8" transform="translate(224.000000, 137.000000)">
                        <path d="M6.70910891,6.05108911 C4.73920792,5.2350495 3.00910891,5.16158416 1.42059406,5.82158416 L1.32277228,5.58059406 C2.9780198,4.89485149 4.77544554,4.97089109 6.80970297,5.81148515 L6.70910891,6.05108911" id="Fill-1"></path>
                        <path d="M6.80970297,7.38693069 C4.77782178,6.54752475 2.9780198,6.47148515 1.32277228,7.1560396 L1.42079208,7.39584158 C3.01425743,6.73841584 4.74178218,6.81326733 6.70930693,7.62673267 L6.80970297,7.38693069" id="Fill-2"></path>
                        <path d="M6.80970297,4.23584158 C4.77782178,3.39663366 2.9780198,3.32039604 1.32277228,4.00376238 L1.42079208,4.2449505 C3.01425743,3.58613861 4.74178218,3.66079208 6.70930693,4.47584158 L6.80970297,4.23584158" id="Fill-3"></path>
                        <path d="M15.5738614,7.34435644 L15.5738614,11.7019802 C11.9176238,9.38633663 8.75643564,11.5071287 8.75643564,11.8693069 L8.75643564,4.15346535 C8.75643564,2.7829703 10.5691089,2.0429703 12.8021782,2.0429703 C13.4184158,2.0429703 13.9958416,2.13584158 14.5168317,2.28653465 L15.269703,1.53366337 C11.5283168,0.388712871 8.6560396,2.08019802 8.26138614,2.44514851 C7.69663366,1.89841584 4.44772277,0.00455445545 0,1.93584158 L0,3.31524752 L0,12.529505 L6.7580198,12.529505 C6.99009901,12.7293069 7.53920792,12.8712871 8.18138614,12.8712871 C8.82336634,12.8712871 9.37267327,12.7293069 9.60732673,12.529505 L16.3629703,12.529505 L16.3629703,6.55405941 L15.5738614,7.34435644 L15.5738614,7.34435644 Z M7.6580198,11.8693069 C7.6580198,11.5071287 4.49425743,9.38633663 0.843168317,11.7017822 L0.843168317,2.71722772 C1.56514851,2.29960396 2.53980198,2.0429703 3.61247525,2.0429703 C5.84534653,2.0429703 7.6580198,2.7829703 7.6580198,4.15346535 L7.6580198,11.8693069 L7.6580198,11.8693069 Z" id="Fill-4"></path>
                        <path d="M9.26950495,5.81128713 L9.36752475,6.05108911 C10.1435644,5.72891089 10.9429703,5.55485149 11.7293069,5.4619802 L11.8427723,5.18871287 C10.9867327,5.2750495 10.1152475,5.4619802 9.26950495,5.81128713" id="Fill-5"></path>
                        <path d="M9.26950495,7.38693069 L9.36752475,7.62673267 C9.92178218,7.39861386 10.4865347,7.24118812 11.0538614,7.12891089 L11.1647525,6.85287129 C10.530495,6.96772277 9.89089109,7.13029703 9.26950495,7.38693069" id="Fill-6"></path>
                        <path d="M9.26950495,4.23584158 L9.36752475,4.47564356 C10.5588119,3.98316832 11.8015842,3.78851485 12.9669307,3.83742574 L13.2118812,3.59247525 C11.9433663,3.50237624 10.5742574,3.69584158 9.26950495,4.23584158" id="Fill-7"></path>
                        <path d="M19.6865347,1.66514851 L18.1962376,0.174851485 C17.9926733,-0.0314851485 17.5825743,0.0421782178 17.2887129,0.337227723 L12.4926733,5.13445545 L11.9871287,6.36811881 C11.8738614,6.64792079 11.7138614,7.04891089 11.5746535,7.38792079 C11.5360396,7.48217822 11.4920792,7.59029703 11.4586139,7.66633663 L11.2239604,8.25029703 C11.0770297,8.60891089 11.2522772,8.78158416 11.6079208,8.63841584 L12.1932673,8.39861386 C12.2681188,8.36772277 12.3790099,8.32376238 12.4716832,8.28514851 C12.8120792,8.14871287 13.2093069,7.98475248 13.4926733,7.87267327 L14.7253465,7.36851485 L19.5237624,2.57128713 C19.8180198,2.27742574 19.890297,1.87009901 19.6865347,1.66514851 L19.6865347,1.66514851 Z M13.3435644,7.4990099 L12.5675248,7.81485149 L12.0465347,7.29267327 L12.2011881,6.91089109 L12.3611881,6.52039604 L12.6344554,5.84475248 L14.0140594,7.22554455 L13.3435644,7.4990099 L13.3435644,7.4990099 Z" id="Fill-8"></path>
                    </g>
                </g>
            </g>
        </g>
    </g>
</svg>