<?xml version="1.0" encoding="UTF-8" standalone="no"?>
<svg width="107px" height="108px" viewBox="0 0 107 108" version="1.1" xmlns="http://www.w3.org/2000/svg" xmlns:xlink="http://www.w3.org/1999/xlink" xmlns:sketch="http://www.bohemiancoding.com/sketch/ns">
    <!-- Generator: Sketch 3.3.2 (12043) - http://www.bohemiancoding.com/sketch -->
    <title>Icon</title>
    <desc>Created with Sketch.</desc>
    <defs></defs>
    <g id="Spec" stroke="none" stroke-width="1" fill="none" fill-rule="evenodd" sketch:type="MSPage">
        <g id="Spec-3" sketch:type="MSArtboardGroup" transform="translate(-262.000000, -655.000000)">
            <g id="Group" sketch:type="MSLayerGroup" transform="translate(130.000000, 118.000000)">
                <g id="Reading-2" transform="translate(90.000000, 513.000000)" sketch:type="MSShapeGroup">
                    <g id="Icon" transform="translate(45.500000, 26.000000)">
                        <circle id="Oval-73" fill="#137FAA" cx="50" cy="50" r="50"></circle>
                        <g id="Imported-Layers-Copy" transform="translate(25.000000, 21.000000)" fill="#FFFFFF">
                            <path d="M48.8476923,12.0338462 C48.4576923,11.7307692 47.9607692,11.6615385 47.5223077,11.8523077 L26.3407692,21.0246154 C25.4192308,21.4253846 24.2669231,21.6184615 23.0830769,21.6184615 C21.4323077,21.6230769 19.7238462,21.2384615 18.5338462,20.7146154 C18.1076923,20.5330769 17.7515385,20.3284615 17.5007692,20.1461538 C17.5930769,20.1007692 17.6976923,20.0538462 17.8207692,20.0053846 L37.09,11.6653846 L39.9661538,12.8953846 L39.9661538,9.30153846 C39.9661538,8.76615385 39.7392308,8.25923077 39.3492308,7.96 C38.9592308,7.65692308 38.4607692,7.58769231 38.0261538,7.77846154 L16.8253846,16.9492308 C16.1723077,17.2146154 15.6107692,17.5369231 15.1346154,18.0092308 C14.6676923,18.4653846 14.2646154,19.2192308 14.2707692,20.0561538 C14.2707692,20.0792308 14.2769231,20.1161538 14.2769231,20.1161538 L14.2769231,52.4130769 C14.2769231,52.4253846 14.2730769,52.4407692 14.2730769,52.4561538 C14.2730769,52.4669231 14.2769231,52.4707692 14.2769231,52.4815385 L14.2769231,52.5161538 L14.2815385,52.5161538 C14.3292308,53.66 14.8961538,54.39 15.44,54.8715385 C17.1515385,56.3807692 20.0246154,57.2253846 23.0792308,57.2930769 C24.5269231,57.2930769 25.9969231,57.0646154 27.3538462,56.4907692 L48.54,47.3084615 C49.1007692,47.08 49.4653846,46.4692308 49.4653846,45.7992308 L49.4653846,13.3776923 C49.4638462,12.8430769 49.2330769,12.3369231 48.8476923,12.0338462" id="Fill-1"></path>
                            <path d="M35.4130769,5.89384615 C35.3753846,5.41 35.1776923,4.95384615 34.8176923,4.67538462 C34.43,4.37230769 33.9315385,4.30307692 33.49,4.49384615 L12.31,13.6653846 C11.3892308,14.0638462 10.2346154,14.26 9.05230769,14.26 C7.40153846,14.2623077 5.69230769,13.8776923 4.50230769,13.3546154 C4.07923077,13.1746154 3.72153846,12.97 3.47,12.7876923 C3.56230769,12.7415385 3.66923077,12.6953846 3.79,12.6476923 L23.0569231,4.30692308 L25.9292308,5.53769231 L25.9292308,1.94307692 C25.9292308,1.40769231 25.6961538,0.901538462 25.3069231,0.601538462 C24.92,0.298461538 24.4138462,0.227692308 23.9776923,0.42 L2.79615385,9.59076923 C2.14307692,9.85384615 1.58384615,10.1769231 1.10769231,10.6507692 C0.639230769,11.1069231 0.237692308,11.8607692 0.243846154,12.6992308 C0.243846154,12.7223077 0.25,12.7576923 0.25,12.7576923 L0.25,45.0561538 C0.25,45.0684615 0.247692308,45.0861538 0.247692308,45.0984615 C0.247692308,45.1069231 0.25,45.1107692 0.25,45.1453846 L0.25,45.1876923 L0.254615385,45.1876923 C0.300769231,46.3315385 0.869230769,47.0615385 1.41307692,47.5369231 C3.12461538,49.0469231 5.99769231,49.8646154 9.05384615,49.9415385 C9.87846154,49.9415385 10.7069231,49.8346154 11.5223077,49.6807692 L11.5223077,20.1246154 C11.5007692,18.59 12.1146154,17.1161538 13.1938462,16.0553846 C13.8930769,15.3646154 14.7461538,14.8184615 15.8030769,14.3976923 L35.4130769,5.89384615" id="Fill-2"></path>
                        </g>
                    </g>
                </g>
            </g>
        </g>
    </g>
</svg>