<?xml version="1.0" encoding="UTF-8" standalone="no"?>
<svg width="26px" height="21px" viewBox="0 0 26 21" version="1.1" xmlns="http://www.w3.org/2000/svg" xmlns:xlink="http://www.w3.org/1999/xlink" xmlns:sketch="http://www.bohemiancoding.com/sketch/ns">
    <!-- Generator: Sketch 3.3.2 (12043) - http://www.bohemiancoding.com/sketch -->
    <title>Group</title>
    <desc>Created with Sketch.</desc>
    <defs></defs>
    <g id="Spec" stroke="none" stroke-width="1" fill="none" fill-rule="evenodd" sketch:type="MSPage">
        <g id="Spec-3" sketch:type="MSArtboardGroup" transform="translate(-439.000000, -741.000000)" fill="#007FAA">
            <g id="Group" sketch:type="MSLayerGroup" transform="translate(130.000000, 118.000000)">
                <g id="Reading-2" transform="translate(90.000000, 513.000000)" sketch:type="MSShapeGroup">
                    <g id="Group" transform="translate(223.000000, 112.000000)">
                        <path d="M11.3976,7.3059 L7.0278,9.1971 C6.99,9.2139 6.9492,9.2223 6.909,9.2223 C6.8508,9.2223 6.7938,9.2055 6.744,9.1725 C6.6594,9.1173 6.609,9.0231 6.609,8.9223 L6.609,5.1393 C6.609,5.0385 6.6594,4.9437 6.744,4.8885 C6.8286,4.8333 6.9354,4.8249 7.0278,4.8639 L11.3976,6.7551 C11.5074,6.8025 11.5782,6.9111 11.5782,7.0305 C11.5782,7.1499 11.5074,7.2585 11.3976,7.3059 L11.3976,7.3059 Z M0.609,3.0003 L0.009,3.0003 L0.009,10.8003 L0.609,10.8003 L17.409,10.8003 L18.009,10.8003 L18.009,3.0003 L17.409,3.0003 L0.609,3.0003 Z" id="Fill-4241"></path>
                        <path d="M12.009,0 L6.009,0 L6.009,2.4 L12.009,2.4 L12.009,0 Z" id="Fill-4242"></path>
                        <path d="M17.70876,0.00012 L12.60876,0.00012 L12.60876,2.40012 L17.70876,2.40012 L18.00876,2.40012 L18.00876,0.30012 C18.00876,0.13452 17.87436,0.00012 17.70876,0.00012" id="Fill-4243"></path>
                        <path d="M5.40876,2.40012 L5.40876,0.00012 L0.30876,0.00012 C0.14316,0.00012 0.00876,0.13452 0.00876,0.30012 L0.00876,2.40012 L0.30876,2.40012 L5.40876,2.40012 Z" id="Fill-4244"></path>
                        <path d="M0.00876,11.40012 L0.00876,13.50012 C0.00876,13.66572 0.14316,13.80012 0.30876,13.80012 L5.40876,13.80012 L5.40876,11.40012 L0.30876,11.40012 L0.00876,11.40012 Z" id="Fill-4245"></path>
                        <path d="M6.009,13.8 L12.009,13.8 L12.009,11.4 L6.009,11.4 L6.009,13.8 Z" id="Fill-4246"></path>
                        <path d="M12.60876,11.40012 L12.60876,13.80012 L17.70876,13.80012 C17.87436,13.80012 18.00876,13.66572 18.00876,13.50012 L18.00876,11.40012 L17.70876,11.40012 L12.60876,11.40012 Z" id="Fill-4247"></path>
                    </g>
                </g>
            </g>
        </g>
    </g>
</svg>