<?xml version="1.0" encoding="UTF-8" standalone="no"?>
<svg width="19px" height="22px" viewBox="0 0 19 22" version="1.1" xmlns="http://www.w3.org/2000/svg" xmlns:xlink="http://www.w3.org/1999/xlink" xmlns:sketch="http://www.bohemiancoding.com/sketch/ns">
    <!-- Generator: Sketch 3.3.2 (12043) - http://www.bohemiancoding.com/sketch -->
    <title>Fill 2908 Copy</title>
    <desc>Created with Sketch.</desc>
    <defs></defs>
    <g id="Spec" stroke="none" stroke-width="1" fill="none" fill-rule="evenodd" sketch:type="MSPage">
        <g id="Spec-3" sketch:type="MSArtboardGroup" transform="translate(-442.000000, -717.000000)" fill="#007FAA">
            <g id="Group" sketch:type="MSLayerGroup" transform="translate(130.000000, 118.000000)">
                <g id="Reading-2" transform="translate(90.000000, 513.000000)" sketch:type="MSShapeGroup">
                    <g id="Fill-2908-Copy" transform="translate(226.000000, 87.000000)">
                        <path d="M11.25725,3.00025 L10.00725,3.00025 L10.00725,1.75025 C10.00725,1.61225 9.89525,1.50025 9.75725,1.50025 L1.75725,1.50025 C1.61925,1.50025 1.50725,1.61225 1.50725,1.75025 C1.50725,1.88825 1.61925,2.00025 1.75725,2.00025 L9.50725,2.00025 L9.50725,3.00025 L1.75725,3.00025 C1.06825,3.00025 0.50725,2.43925 0.50725,1.75025 C0.50725,1.06125 1.06825,0.50025 1.75725,0.50025 L10.75725,0.50025 C10.89525,0.50025 11.00725,0.38825 11.00725,0.25025 C11.00725,0.11225 10.89525,0.00025 10.75725,0.00025 L1.75725,0.00025 C0.79225,0.00025 0.00725,0.78525 0.00725,1.75025 L0.00725,13.50025 C0.00725,14.38325 0.62425,15.00025 1.50725,15.00025 L11.25725,15.00025 C11.39525,15.00025 11.50725,14.88825 11.50725,14.75025 L11.50725,3.25025 C11.50725,3.11225 11.39525,3.00025 11.25725,3.00025" id="Fill-2908"></path>
                    </g>
                </g>
            </g>
        </g>
    </g>
</svg>