<?xml version="1.0" encoding="UTF-8" standalone="no"?>
<svg width="107px" height="108px" viewBox="0 0 107 108" version="1.1" xmlns="http://www.w3.org/2000/svg" xmlns:xlink="http://www.w3.org/1999/xlink" xmlns:sketch="http://www.bohemiancoding.com/sketch/ns">
    <!-- Generator: Sketch 3.3.2 (12043) - http://www.bohemiancoding.com/sketch -->
    <title>Icon</title>
    <desc>Created with Sketch.</desc>
    <defs></defs>
    <g id="Spec" stroke="none" stroke-width="1" fill="none" fill-rule="evenodd" sketch:type="MSPage">
        <g id="Spec-3" sketch:type="MSArtboardGroup" transform="translate(-262.000000, -321.000000)">
            <g id="Group" sketch:type="MSLayerGroup" transform="translate(130.000000, 118.000000)">
                <g id="Why-It-Matters-1" transform="translate(0.000000, 176.000000)" sketch:type="MSShapeGroup">
                    <g id="Icon" transform="translate(135.500000, 29.000000)">
                        <circle id="Oval-72" fill="#FFFFFF" cx="50" cy="50" r="50"></circle>
                        <g id="Imported-Layers-Copy-7" transform="translate(25.000000, 22.500000)" fill="#007A7C">
                            <path d="M6.94104478,11.2604478 C10.0977612,11.2604478 12.6559701,13.8186567 12.6559701,16.9753731 C12.6559701,20.1313433 10.0977612,22.6895522 6.94104478,22.6895522 C3.78507463,22.6895522 1.22686567,20.1313433 1.22686567,16.9753731 C1.22686567,13.8186567 3.78507463,11.2604478 6.94104478,11.2604478" id="Fill-1"></path>
                            <path d="M34.0820896,20.9186567 L33.3402985,20.9186567 L30.5395522,24.1 C29.5022388,23.4634328 28.130597,23.6395522 27.2977612,24.5835821 L21.8783582,30.6873134 L16.4201493,24.6447761 C16.0507463,24.2395522 15.5791045,23.9865672 15.0813433,23.8761194 L15.0813433,23.8731343 L15.061194,23.8731343 C14.7223881,23.8014925 14.3738806,23.8029851 14.0328358,23.869403 L9.99626866,23.858209 L3.76641791,23.858209 C1.6,24.1828358 0.513432836,25.2656716 0.513432836,27.111194 L0.412686567,30.0164179 L0.412686567,44.8238806 C0.412686567,46.438806 1.62835821,48.2843284 3.68358209,48.2843284 L3.68358209,54.0902985 L15.0820896,54.0902985 L15.0820896,30.7731343 L19.8604478,36.061194 C20.4619403,36.7238806 21.3335821,36.9925373 22.1559701,36.858209 C22.8313433,36.8350746 23.4962687,36.5492537 23.9791045,36.0029851 L31.1246269,27.9559701 C32.0291045,26.9298507 31.9514925,25.3843284 30.9798507,24.4425373 L34.0820896,20.9186567" id="Fill-2"></path>
                            <path d="M18.3022388,0.561940299 L18.3022388,20.9186567 L33.3402985,20.9186567 L38.0768657,15.5708955 L38.4955224,15.9425373 L34.0820896,20.9186567 L49.5074627,20.9186567 L49.5074627,0.561940299 L18.3022388,0.561940299 L18.3022388,0.561940299 Z M22.3201493,13.3335821 L45.4910448,13.3335821 L45.4910448,14.3164179 L22.3201493,14.3164179 L22.3201493,13.3335821 Z M22.3201493,9.02313433 L45.4910448,9.02313433 L45.4910448,10.0059701 L22.3201493,10.0059701 L22.3201493,9.02313433 Z M22.3201493,4.71343284 L45.4910448,4.71343284 L45.4910448,5.69626866 L22.3201493,5.69626866 L22.3201493,4.71343284 Z" id="Fill-3"></path>
                        </g>
                    </g>
                </g>
            </g>
        </g>
    </g>
</svg>